HIERARCHY
ROOT hip
{
	OFFSET 0.000000 0.000000 0.000000 
	CHANNELS 6 Xposition Yposition Zposition Xrotation Zrotation Yrotation
	JOINT abdomen
	{
		OFFSET 0.000000 3.402643 0.000000 
		CHANNELS 3 Xrotation Zrotation Yrotation
		JOINT chest
		{
			OFFSET 0.000000 8.438565 -0.680529 
			CHANNELS 3 Xrotation Zrotation Yrotation
			JOINT neck
			{
				OFFSET 0.000000 10.207942 -0.272212 
				CHANNELS 3 Xrotation Zrotation Yrotation
				JOINT head
				{
					OFFSET 0.000000 3.130431 0.000000 
					CHANNELS 3 Xrotation Zrotation Yrotation
					End Site
					{
						OFFSET 0.000000 3.130435 0.000000 
					}
				}
			}
			JOINT lCollar
			{
				OFFSET 3.470700 6.669187 -0.816635 
				CHANNELS 3 Yrotation Zrotation Xrotation
				JOINT lShldr
				{
					OFFSET 3.198488 0.000000 0.000000 
					CHANNELS 3 Zrotation Yrotation Xrotation
					JOINT lForeArm
					{
						OFFSET 10.139888 0.000000 0.000000 
						CHANNELS 3 Yrotation Zrotation Xrotation
						JOINT lHand
						{
							OFFSET 8.370511 0.000000 0.000000 
							CHANNELS 3 Zrotation Yrotation Xrotation
							End Site
							{
								OFFSET 4.083176 0.000000 0.000000 
							}
						}
					}
				}
			}
			JOINT rCollar
			{
				OFFSET -3.470700 6.669187 -0.816635 
				CHANNELS 3 Yrotation Zrotation Xrotation
				JOINT rShldr
				{
					OFFSET -3.198488 0.000000 0.000000 
					CHANNELS 3 Zrotation Yrotation Xrotation
					JOINT rForeArm
					{
						OFFSET -10.139888 0.000000 0.000000 
						CHANNELS 3 Yrotation Zrotation Xrotation
						JOINT rHand
						{
							OFFSET -8.370511 0.000000 0.000000 
							CHANNELS 3 Zrotation Yrotation Xrotation
							End Site
							{
								OFFSET -4.083176 0.000000 0.000000 
							}
						}
					}
				}
			}
		}
	}
	JOINT lThigh
	{
		OFFSET 5.308129 -1.633274 1.361059 
		CHANNELS 3 Xrotation Zrotation Yrotation
		JOINT lShin
		{
			OFFSET -2.041588 -20.007561 0.000000 
			CHANNELS 3 Xrotation Zrotation Yrotation
			JOINT lFoot
			{
				OFFSET 0.000000 -19.190928 -1.224953 
				CHANNELS 3 Xrotation Yrotation Zrotation
				End Site
				{
					OFFSET 0.000000 -2.449906 4.627600 
				}
			}
		}
	}
	JOINT rThigh
	{
		OFFSET -5.308129 -1.633274 1.361059 
		CHANNELS 3 Xrotation Zrotation Yrotation
		JOINT rShin
		{
			OFFSET 2.041588 -20.007561 0.000000 
			CHANNELS 3 Xrotation Zrotation Yrotation
			JOINT rFoot
			{
				OFFSET 0.000000 -19.190928 -1.224953 
				CHANNELS 3 Xrotation Yrotation Zrotation
				End Site
				{
					OFFSET 0.000000 -2.449906 4.627600 
				}
			}
		}
	}
}
MOTION
Frames: 11
Frame Time: 0.033333
-3.058891 49.625488 -2.190214 -9.036162 3.028422 15.700419 0.000000 0.000000 0.000000 6.053198 2.991073 4.682347 20.805841 4.363817 41.558262 6.737252 -8.511173 36.604286 8.888701 -9.734359 4.202159 -59.869503 -6.032126 30.271910 -43.420113 -13.966964 3.639922 10.207020 7.027670 28.839457 7.485097 20.879492 4.404936 38.153839 -29.385792 -24.228403 134.193314 1.928007 4.361260 -1.915371 37.546627 -35.814423 -0.488954 10.717260 5.313067 17.586010 -2.658366 0.562693 -6.318354 0.001362 -0.020732 6.501689 -5.877685 -8.091067 12.848290 4.049098 -16.302120 -8.433614 -0.241686 3.411608 
-2.942739 49.644497 -2.114243 -9.548987 3.476664 15.285154 0.000000 0.000000 0.000000 6.365619 2.901950 4.845164 21.194096 4.135584 41.887218 6.332120 -8.557823 36.850986 9.407123 -10.034084 4.772949 -59.617123 -6.245127 30.207018 -43.589111 -13.983432 3.638305 9.924506 7.037355 29.058346 7.599515 20.674255 4.980245 37.701801 -30.478603 -17.652191 128.801315 0.892881 4.242634 2.129058 35.495213 -26.738710 0.574781 10.110277 5.069413 17.348763 -2.735897 1.443571 -6.503907 0.000195 -0.010588 7.336457 -6.577010 -8.754596 12.883001 4.084992 -14.852127 -8.597818 -0.275803 3.515494 
-2.946390 49.640591 -2.171061 -9.194154 3.200621 15.732493 0.000000 0.000000 0.000000 6.179943 2.922401 4.701151 20.886044 4.415076 41.968105 6.006166 -8.565541 37.202110 9.081854 -10.061950 4.506131 -59.456196 -6.188080 30.085815 -43.777424 -13.909192 3.630852 9.559175 7.119686 29.192099 7.441990 20.754217 4.699336 36.877193 -31.186903 -13.220131 122.813210 -0.057726 4.096323 12.102926 29.099831 -7.735961 -0.225023 10.408414 5.082653 17.691671 -2.697246 0.628561 -6.562121 -0.007563 0.188806 6.972085 -6.211079 -8.403368 12.655238 4.039486 -15.801023 -8.396441 -0.274733 3.589283 
-2.863082 49.650665 -2.124449 -9.383657 3.574693 15.660205 0.000000 0.000000 0.000000 6.394042 2.736802 4.867238 20.849916 4.205313 42.261646 5.690523 -8.514536 37.345310 9.395550 -9.915650 4.869653 -59.796825 -6.613950 30.080921 -43.715679 -13.824260 3.626726 9.398117 6.922550 29.388720 7.721223 21.080008 5.035659 36.067219 -31.419680 -6.315370 115.972298 -1.221733 3.945998 10.491591 20.589483 -2.652933 0.321335 9.973179 4.956185 17.519968 -2.852445 0.910149 -6.639463 -0.019488 0.343710 7.332723 -6.728141 -8.774157 12.807959 3.970007 -15.123142 -8.534679 -0.288346 3.756223 
-2.858175 49.645496 -2.190277 -8.803354 3.252329 16.362091 0.000000 0.000000 0.000000 6.110620 2.757704 4.797195 20.343473 4.093369 42.530487 5.105851 -7.612913 37.485214 9.263230 -10.076824 4.372184 -59.349476 -6.918647 30.360563 -43.981686 -13.986040 3.653132 9.303002 7.170501 28.696861 7.672055 21.221285 4.529109 35.658745 -30.765730 0.503478 108.583992 -2.148345 3.776576 7.540329 12.507615 4.031614 -0.781510 10.310713 4.995383 17.776430 -2.882317 -0.113386 -6.539426 -0.036893 0.602745 6.698063 -6.318359 -8.371153 12.598598 3.942821 -16.418968 -8.350264 -0.272603 3.836787 
-2.812620 49.632664 -2.213068 -8.381351 3.082027 17.202520 0.000000 0.000000 0.000000 5.895723 2.797647 4.761569 19.937689 4.027452 42.572784 4.717440 -6.956781 37.364822 9.157317 -10.204844 4.015544 -59.213799 -7.246630 30.573385 -44.045948 -14.120251 3.648291 9.305622 6.994476 28.473934 7.726877 21.217220 4.154480 35.692059 -29.967575 5.556583 100.817070 -2.437407 3.630549 4.989202 5.236432 12.416119 -1.434848 10.449475 4.980563 17.711060 -2.900568 -1.046303 -6.393021 -0.031875 0.583382 6.259344 -6.093701 -8.220151 12.590092 3.928151 -17.630274 -8.284450 -0.292974 3.966239 
-2.771594 49.643105 -2.199590 -8.421409 3.197641 17.573914 0.000000 0.000000 0.000000 6.013049 2.797051 4.952836 19.960180 3.872918 42.862873 4.492608 -6.789292 37.292347 9.507036 -10.264610 4.205634 -59.236538 -7.904967 30.864162 -44.171795 -14.251553 3.665224 9.727606 6.935572 28.464115 7.980241 20.977222 4.361852 36.647518 -28.862446 8.958532 93.005661 -2.102442 3.513907 3.442740 -1.694374 17.419174 -1.376942 10.398088 4.998980 17.766403 -3.000717 -1.287747 -6.458419 -0.059778 0.827222 6.503481 -6.113345 -8.229090 12.421440 3.844399 -17.895613 -8.236382 -0.307472 4.109301 
-2.697094 49.636192 -2.132930 -8.490691 3.293661 18.122122 0.000000 0.000000 0.000000 6.042686 2.855168 5.058084 20.204933 3.800681 42.897614 3.881345 -6.939487 37.231323 9.892352 -10.367686 4.228785 -59.058125 -8.261582 31.223814 -44.463943 -14.382253 3.681103 10.039108 6.790802 28.606667 8.262280 21.092638 4.364496 37.434551 -27.329901 11.513791 84.260323 -1.109346 3.409971 2.115728 -5.036537 18.512060 -1.357080 10.342861 4.986444 17.914143 -2.961755 -1.778731 -6.584247 -0.059168 0.891838 6.773894 -6.130563 -8.267385 12.445084 3.792708 -18.298269 -8.352284 -0.337027 4.322434 
-2.606489 49.631657 -2.135284 -7.990839 3.172088 19.174229 0.000000 0.000000 0.000000 5.749752 2.934407 4.943885 19.857218 3.931256 42.693615 3.964681 -6.453579 36.997116 9.650550 -10.514419 3.694988 -59.001812 -8.172122 31.352989 -44.688576 -14.408820 3.685933 9.893203 6.516334 28.187326 8.249807 21.278282 3.818608 38.196613 -26.198656 13.099172 75.970688 0.196191 3.340856 3.222212 -6.567934 20.101812 -2.226468 10.309324 4.838050 17.995024 -2.825525 -2.894202 -6.483248 -0.076387 1.076058 6.411458 -6.050789 -8.252591 12.360218 3.977891 -19.330713 -8.356425 -0.327400 4.380672 
-2.523432 49.611145 -2.111966 -7.747297 3.299750 20.010506 0.000000 0.000000 0.000000 5.651773 2.896034 4.954572 19.762514 3.947419 42.448944 3.858556 -6.238482 36.707256 9.551575 -10.454558 3.554506 -59.231121 -8.203304 31.522491 -44.826992 -14.422256 3.685573 10.362405 6.343451 28.605448 8.278855 21.392881 3.662120 39.159904 -25.461445 14.288508 69.230721 1.580079 3.305319 2.164902 -6.217321 17.615402 -2.646219 10.124044 4.643823 18.138720 -2.825241 -3.614029 -6.508914 -0.082473 1.233535 6.165164 -6.234339 -8.407230 12.779927 4.019257 -20.026537 -8.586173 -0.348587 4.631468 
-2.465671 49.614292 -2.059401 -7.492977 3.301705 20.718485 0.000000 0.000000 0.000000 5.554628 3.022875 4.932618 19.408312 4.233899 41.884266 4.606335 -7.287109 36.327747 9.519027 -10.575915 3.336016 -59.207024 -8.223608 31.746012 -44.836304 -14.497425 3.689501 10.430832 6.338448 29.080647 8.189215 20.786280 3.488328 41.299938 -24.490765 14.725662 62.695412 3.012221 3.272268 1.080512 -5.918396 18.800051 -3.122664 10.069098 4.523686 18.407345 -2.851924 -4.335463 -6.597800 -0.121738 1.600703 6.150736 -6.219567 -8.464413 12.655025 4.069983 -20.723845 -8.607369 -0.361019 4.754961 
